<?xml version="1.0" encoding="utf-8" standalone="no"?>
<!DOCTYPE svg PUBLIC "-//W3C//DTD SVG 1.1//EN"
  "http://www.w3.org/Graphics/SVG/1.1/DTD/svg11.dtd">
<!-- Created with matplotlib (https://matplotlib.org/) -->
<svg height="345.6pt" version="1.1" viewBox="0 0 460.8 345.6" width="460.8pt" xmlns="http://www.w3.org/2000/svg" xmlns:xlink="http://www.w3.org/1999/xlink">
 <defs>
  <style type="text/css">
*{stroke-linecap:butt;stroke-linejoin:round;}
  </style>
 </defs>
 <g id="figure_1">
  <g id="patch_1">
   <path d="M 0 345.6 
L 460.8 345.6 
L 460.8 0 
L 0 0 
z
" style="fill:none;"/>
  </g>
  <g id="axes_1">
   <g id="patch_2">
    <path d="M 57.6 307.584 
L 414.72 307.584 
L 414.72 41.472 
L 57.6 41.472 
z
" style="fill:none;"/>
   </g>
   <g id="matplotlib.axis_1">
    <g id="xtick_1">
     <g id="line2d_1">
      <defs>
       <path d="M 0 0 
L 0 3.5 
" id="m0170920f60" style="stroke:#000000;stroke-width:0.8;"/>
      </defs>
      <g>
       <use style="stroke:#000000;stroke-width:0.8;" x="73.832727" xlink:href="#m0170920f60" y="307.584"/>
      </g>
     </g>
     <g id="text_1">
      <!-- −0.3 -->
      <defs>
       <path d="M 10.59375 35.5 
L 73.1875 35.5 
L 73.1875 27.203125 
L 10.59375 27.203125 
z
" id="DejaVuSans-8722"/>
       <path d="M 31.78125 66.40625 
Q 24.171875 66.40625 20.328125 58.90625 
Q 16.5 51.421875 16.5 36.375 
Q 16.5 21.390625 20.328125 13.890625 
Q 24.171875 6.390625 31.78125 6.390625 
Q 39.453125 6.390625 43.28125 13.890625 
Q 47.125 21.390625 47.125 36.375 
Q 47.125 51.421875 43.28125 58.90625 
Q 39.453125 66.40625 31.78125 66.40625 
z
M 31.78125 74.21875 
Q 44.046875 74.21875 50.515625 64.515625 
Q 56.984375 54.828125 56.984375 36.375 
Q 56.984375 17.96875 50.515625 8.265625 
Q 44.046875 -1.421875 31.78125 -1.421875 
Q 19.53125 -1.421875 13.0625 8.265625 
Q 6.59375 17.96875 6.59375 36.375 
Q 6.59375 54.828125 13.0625 64.515625 
Q 19.53125 74.21875 31.78125 74.21875 
z
" id="DejaVuSans-48"/>
       <path d="M 10.6875 12.40625 
L 21 12.40625 
L 21 0 
L 10.6875 0 
z
" id="DejaVuSans-46"/>
       <path d="M 40.578125 39.3125 
Q 47.65625 37.796875 51.625 33 
Q 55.609375 28.21875 55.609375 21.1875 
Q 55.609375 10.40625 48.1875 4.484375 
Q 40.765625 -1.421875 27.09375 -1.421875 
Q 22.515625 -1.421875 17.65625 -0.515625 
Q 12.796875 0.390625 7.625 2.203125 
L 7.625 11.71875 
Q 11.71875 9.328125 16.59375 8.109375 
Q 21.484375 6.890625 26.8125 6.890625 
Q 36.078125 6.890625 40.9375 10.546875 
Q 45.796875 14.203125 45.796875 21.1875 
Q 45.796875 27.640625 41.28125 31.265625 
Q 36.765625 34.90625 28.71875 34.90625 
L 20.21875 34.90625 
L 20.21875 43.015625 
L 29.109375 43.015625 
Q 36.375 43.015625 40.234375 45.921875 
Q 44.09375 48.828125 44.09375 54.296875 
Q 44.09375 59.90625 40.109375 62.90625 
Q 36.140625 65.921875 28.71875 65.921875 
Q 24.65625 65.921875 20.015625 65.03125 
Q 15.375 64.15625 9.8125 62.3125 
L 9.8125 71.09375 
Q 15.4375 72.65625 20.34375 73.4375 
Q 25.25 74.21875 29.59375 74.21875 
Q 40.828125 74.21875 47.359375 69.109375 
Q 53.90625 64.015625 53.90625 55.328125 
Q 53.90625 49.265625 50.4375 45.09375 
Q 46.96875 40.921875 40.578125 39.3125 
z
" id="DejaVuSans-51"/>
      </defs>
      <g transform="translate(61.691321 322.182437)scale(0.1 -0.1)">
       <use xlink:href="#DejaVuSans-8722"/>
       <use x="83.789062" xlink:href="#DejaVuSans-48"/>
       <use x="147.412109" xlink:href="#DejaVuSans-46"/>
       <use x="179.199219" xlink:href="#DejaVuSans-51"/>
      </g>
     </g>
    </g>
    <g id="xtick_2">
     <g id="line2d_2">
      <g>
       <use style="stroke:#000000;stroke-width:0.8;" x="148.901162" xlink:href="#m0170920f60" y="307.584"/>
      </g>
     </g>
     <g id="text_2">
      <!-- −0.2 -->
      <defs>
       <path d="M 19.1875 8.296875 
L 53.609375 8.296875 
L 53.609375 0 
L 7.328125 0 
L 7.328125 8.296875 
Q 12.9375 14.109375 22.625 23.890625 
Q 32.328125 33.6875 34.8125 36.53125 
Q 39.546875 41.84375 41.421875 45.53125 
Q 43.3125 49.21875 43.3125 52.78125 
Q 43.3125 58.59375 39.234375 62.25 
Q 35.15625 65.921875 28.609375 65.921875 
Q 23.96875 65.921875 18.8125 64.3125 
Q 13.671875 62.703125 7.8125 59.421875 
L 7.8125 69.390625 
Q 13.765625 71.78125 18.9375 73 
Q 24.125 74.21875 28.421875 74.21875 
Q 39.75 74.21875 46.484375 68.546875 
Q 53.21875 62.890625 53.21875 53.421875 
Q 53.21875 48.921875 51.53125 44.890625 
Q 49.859375 40.875 45.40625 35.40625 
Q 44.1875 33.984375 37.640625 27.21875 
Q 31.109375 20.453125 19.1875 8.296875 
z
" id="DejaVuSans-50"/>
      </defs>
      <g transform="translate(136.759755 322.182437)scale(0.1 -0.1)">
       <use xlink:href="#DejaVuSans-8722"/>
       <use x="83.789062" xlink:href="#DejaVuSans-48"/>
       <use x="147.412109" xlink:href="#DejaVuSans-46"/>
       <use x="179.199219" xlink:href="#DejaVuSans-50"/>
      </g>
     </g>
    </g>
    <g id="xtick_3">
     <g id="line2d_3">
      <g>
       <use style="stroke:#000000;stroke-width:0.8;" x="223.969596" xlink:href="#m0170920f60" y="307.584"/>
      </g>
     </g>
     <g id="text_3">
      <!-- −0.1 -->
      <defs>
       <path d="M 12.40625 8.296875 
L 28.515625 8.296875 
L 28.515625 63.921875 
L 10.984375 60.40625 
L 10.984375 69.390625 
L 28.421875 72.90625 
L 38.28125 72.90625 
L 38.28125 8.296875 
L 54.390625 8.296875 
L 54.390625 0 
L 12.40625 0 
z
" id="DejaVuSans-49"/>
      </defs>
      <g transform="translate(211.82819 322.182437)scale(0.1 -0.1)">
       <use xlink:href="#DejaVuSans-8722"/>
       <use x="83.789062" xlink:href="#DejaVuSans-48"/>
       <use x="147.412109" xlink:href="#DejaVuSans-46"/>
       <use x="179.199219" xlink:href="#DejaVuSans-49"/>
      </g>
     </g>
    </g>
    <g id="xtick_4">
     <g id="line2d_4">
      <g>
       <use style="stroke:#000000;stroke-width:0.8;" x="299.03803" xlink:href="#m0170920f60" y="307.584"/>
      </g>
     </g>
     <g id="text_4">
      <!-- 0.0 -->
      <g transform="translate(291.086468 322.182437)scale(0.1 -0.1)">
       <use xlink:href="#DejaVuSans-48"/>
       <use x="63.623047" xlink:href="#DejaVuSans-46"/>
       <use x="95.410156" xlink:href="#DejaVuSans-48"/>
      </g>
     </g>
    </g>
    <g id="xtick_5">
     <g id="line2d_5">
      <g>
       <use style="stroke:#000000;stroke-width:0.8;" x="374.106464" xlink:href="#m0170920f60" y="307.584"/>
      </g>
     </g>
     <g id="text_5">
      <!-- 0.1 -->
      <g transform="translate(366.154902 322.182437)scale(0.1 -0.1)">
       <use xlink:href="#DejaVuSans-48"/>
       <use x="63.623047" xlink:href="#DejaVuSans-46"/>
       <use x="95.410156" xlink:href="#DejaVuSans-49"/>
      </g>
     </g>
    </g>
    <g id="text_6">
     <!-- Theta -->
     <defs>
      <path d="M -0.296875 72.90625 
L 61.375 72.90625 
L 61.375 64.59375 
L 35.5 64.59375 
L 35.5 0 
L 25.59375 0 
L 25.59375 64.59375 
L -0.296875 64.59375 
z
" id="DejaVuSans-84"/>
      <path d="M 54.890625 33.015625 
L 54.890625 0 
L 45.90625 0 
L 45.90625 32.71875 
Q 45.90625 40.484375 42.875 44.328125 
Q 39.84375 48.1875 33.796875 48.1875 
Q 26.515625 48.1875 22.3125 43.546875 
Q 18.109375 38.921875 18.109375 30.90625 
L 18.109375 0 
L 9.078125 0 
L 9.078125 75.984375 
L 18.109375 75.984375 
L 18.109375 46.1875 
Q 21.34375 51.125 25.703125 53.5625 
Q 30.078125 56 35.796875 56 
Q 45.21875 56 50.046875 50.171875 
Q 54.890625 44.34375 54.890625 33.015625 
z
" id="DejaVuSans-104"/>
      <path d="M 56.203125 29.59375 
L 56.203125 25.203125 
L 14.890625 25.203125 
Q 15.484375 15.921875 20.484375 11.0625 
Q 25.484375 6.203125 34.421875 6.203125 
Q 39.59375 6.203125 44.453125 7.46875 
Q 49.3125 8.734375 54.109375 11.28125 
L 54.109375 2.78125 
Q 49.265625 0.734375 44.1875 -0.34375 
Q 39.109375 -1.421875 33.890625 -1.421875 
Q 20.796875 -1.421875 13.15625 6.1875 
Q 5.515625 13.8125 5.515625 26.8125 
Q 5.515625 40.234375 12.765625 48.109375 
Q 20.015625 56 32.328125 56 
Q 43.359375 56 49.78125 48.890625 
Q 56.203125 41.796875 56.203125 29.59375 
z
M 47.21875 32.234375 
Q 47.125 39.59375 43.09375 43.984375 
Q 39.0625 48.390625 32.421875 48.390625 
Q 24.90625 48.390625 20.390625 44.140625 
Q 15.875 39.890625 15.1875 32.171875 
z
" id="DejaVuSans-101"/>
      <path d="M 18.3125 70.21875 
L 18.3125 54.6875 
L 36.8125 54.6875 
L 36.8125 47.703125 
L 18.3125 47.703125 
L 18.3125 18.015625 
Q 18.3125 11.328125 20.140625 9.421875 
Q 21.96875 7.515625 27.59375 7.515625 
L 36.8125 7.515625 
L 36.8125 0 
L 27.59375 0 
Q 17.1875 0 13.234375 3.875 
Q 9.28125 7.765625 9.28125 18.015625 
L 9.28125 47.703125 
L 2.6875 47.703125 
L 2.6875 54.6875 
L 9.28125 54.6875 
L 9.28125 70.21875 
z
" id="DejaVuSans-116"/>
      <path d="M 34.28125 27.484375 
Q 23.390625 27.484375 19.1875 25 
Q 14.984375 22.515625 14.984375 16.5 
Q 14.984375 11.71875 18.140625 8.90625 
Q 21.296875 6.109375 26.703125 6.109375 
Q 34.1875 6.109375 38.703125 11.40625 
Q 43.21875 16.703125 43.21875 25.484375 
L 43.21875 27.484375 
z
M 52.203125 31.203125 
L 52.203125 0 
L 43.21875 0 
L 43.21875 8.296875 
Q 40.140625 3.328125 35.546875 0.953125 
Q 30.953125 -1.421875 24.3125 -1.421875 
Q 15.921875 -1.421875 10.953125 3.296875 
Q 6 8.015625 6 15.921875 
Q 6 25.140625 12.171875 29.828125 
Q 18.359375 34.515625 30.609375 34.515625 
L 43.21875 34.515625 
L 43.21875 35.40625 
Q 43.21875 41.609375 39.140625 45 
Q 35.0625 48.390625 27.6875 48.390625 
Q 23 48.390625 18.546875 47.265625 
Q 14.109375 46.140625 10.015625 43.890625 
L 10.015625 52.203125 
Q 14.9375 54.109375 19.578125 55.046875 
Q 24.21875 56 28.609375 56 
Q 40.484375 56 46.34375 49.84375 
Q 52.203125 43.703125 52.203125 31.203125 
z
" id="DejaVuSans-97"/>
     </defs>
     <g transform="translate(221.836562 335.860562)scale(0.1 -0.1)">
      <use xlink:href="#DejaVuSans-84"/>
      <use x="61.083984" xlink:href="#DejaVuSans-104"/>
      <use x="124.462891" xlink:href="#DejaVuSans-101"/>
      <use x="185.986328" xlink:href="#DejaVuSans-116"/>
      <use x="225.195312" xlink:href="#DejaVuSans-97"/>
     </g>
    </g>
   </g>
   <g id="matplotlib.axis_2">
    <g id="ytick_1">
     <g id="line2d_6">
      <defs>
       <path d="M 0 0 
L -3.5 0 
" id="m60888bf4c0" style="stroke:#000000;stroke-width:0.8;"/>
      </defs>
      <g>
       <use style="stroke:#000000;stroke-width:0.8;" x="57.6" xlink:href="#m60888bf4c0" y="296.956283"/>
      </g>
     </g>
     <g id="text_7">
      <!-- 0 -->
      <g transform="translate(44.2375 300.755501)scale(0.1 -0.1)">
       <use xlink:href="#DejaVuSans-48"/>
      </g>
     </g>
    </g>
    <g id="ytick_2">
     <g id="line2d_7">
      <g>
       <use style="stroke:#000000;stroke-width:0.8;" x="57.6" xlink:href="#m60888bf4c0" y="265.722869"/>
      </g>
     </g>
     <g id="text_8">
      <!-- 5 -->
      <defs>
       <path d="M 10.796875 72.90625 
L 49.515625 72.90625 
L 49.515625 64.59375 
L 19.828125 64.59375 
L 19.828125 46.734375 
Q 21.96875 47.46875 24.109375 47.828125 
Q 26.265625 48.1875 28.421875 48.1875 
Q 40.625 48.1875 47.75 41.5 
Q 54.890625 34.8125 54.890625 23.390625 
Q 54.890625 11.625 47.5625 5.09375 
Q 40.234375 -1.421875 26.90625 -1.421875 
Q 22.3125 -1.421875 17.546875 -0.640625 
Q 12.796875 0.140625 7.71875 1.703125 
L 7.71875 11.625 
Q 12.109375 9.234375 16.796875 8.0625 
Q 21.484375 6.890625 26.703125 6.890625 
Q 35.15625 6.890625 40.078125 11.328125 
Q 45.015625 15.765625 45.015625 23.390625 
Q 45.015625 31 40.078125 35.4375 
Q 35.15625 39.890625 26.703125 39.890625 
Q 22.75 39.890625 18.8125 39.015625 
Q 14.890625 38.140625 10.796875 36.28125 
z
" id="DejaVuSans-53"/>
      </defs>
      <g transform="translate(44.2375 269.522088)scale(0.1 -0.1)">
       <use xlink:href="#DejaVuSans-53"/>
      </g>
     </g>
    </g>
    <g id="ytick_3">
     <g id="line2d_8">
      <g>
       <use style="stroke:#000000;stroke-width:0.8;" x="57.6" xlink:href="#m60888bf4c0" y="234.489455"/>
      </g>
     </g>
     <g id="text_9">
      <!-- 10 -->
      <g transform="translate(37.875 238.288674)scale(0.1 -0.1)">
       <use xlink:href="#DejaVuSans-49"/>
       <use x="63.623047" xlink:href="#DejaVuSans-48"/>
      </g>
     </g>
    </g>
    <g id="ytick_4">
     <g id="line2d_9">
      <g>
       <use style="stroke:#000000;stroke-width:0.8;" x="57.6" xlink:href="#m60888bf4c0" y="203.256042"/>
      </g>
     </g>
     <g id="text_10">
      <!-- 15 -->
      <g transform="translate(37.875 207.05526)scale(0.1 -0.1)">
       <use xlink:href="#DejaVuSans-49"/>
       <use x="63.623047" xlink:href="#DejaVuSans-53"/>
      </g>
     </g>
    </g>
    <g id="ytick_5">
     <g id="line2d_10">
      <g>
       <use style="stroke:#000000;stroke-width:0.8;" x="57.6" xlink:href="#m60888bf4c0" y="172.022628"/>
      </g>
     </g>
     <g id="text_11">
      <!-- 20 -->
      <g transform="translate(37.875 175.821847)scale(0.1 -0.1)">
       <use xlink:href="#DejaVuSans-50"/>
       <use x="63.623047" xlink:href="#DejaVuSans-48"/>
      </g>
     </g>
    </g>
    <g id="ytick_6">
     <g id="line2d_11">
      <g>
       <use style="stroke:#000000;stroke-width:0.8;" x="57.6" xlink:href="#m60888bf4c0" y="140.789214"/>
      </g>
     </g>
     <g id="text_12">
      <!-- 25 -->
      <g transform="translate(37.875 144.588433)scale(0.1 -0.1)">
       <use xlink:href="#DejaVuSans-50"/>
       <use x="63.623047" xlink:href="#DejaVuSans-53"/>
      </g>
     </g>
    </g>
    <g id="ytick_7">
     <g id="line2d_12">
      <g>
       <use style="stroke:#000000;stroke-width:0.8;" x="57.6" xlink:href="#m60888bf4c0" y="109.555801"/>
      </g>
     </g>
     <g id="text_13">
      <!-- 30 -->
      <g transform="translate(37.875 113.35502)scale(0.1 -0.1)">
       <use xlink:href="#DejaVuSans-51"/>
       <use x="63.623047" xlink:href="#DejaVuSans-48"/>
      </g>
     </g>
    </g>
    <g id="ytick_8">
     <g id="line2d_13">
      <g>
       <use style="stroke:#000000;stroke-width:0.8;" x="57.6" xlink:href="#m60888bf4c0" y="78.322387"/>
      </g>
     </g>
     <g id="text_14">
      <!-- 35 -->
      <g transform="translate(37.875 82.121606)scale(0.1 -0.1)">
       <use xlink:href="#DejaVuSans-51"/>
       <use x="63.623047" xlink:href="#DejaVuSans-53"/>
      </g>
     </g>
    </g>
    <g id="ytick_9">
     <g id="line2d_14">
      <g>
       <use style="stroke:#000000;stroke-width:0.8;" x="57.6" xlink:href="#m60888bf4c0" y="47.088974"/>
      </g>
     </g>
     <g id="text_15">
      <!-- 40 -->
      <defs>
       <path d="M 37.796875 64.3125 
L 12.890625 25.390625 
L 37.796875 25.390625 
z
M 35.203125 72.90625 
L 47.609375 72.90625 
L 47.609375 25.390625 
L 58.015625 25.390625 
L 58.015625 17.1875 
L 47.609375 17.1875 
L 47.609375 0 
L 37.796875 0 
L 37.796875 17.1875 
L 4.890625 17.1875 
L 4.890625 26.703125 
z
" id="DejaVuSans-52"/>
      </defs>
      <g transform="translate(37.875 50.888192)scale(0.1 -0.1)">
       <use xlink:href="#DejaVuSans-52"/>
       <use x="63.623047" xlink:href="#DejaVuSans-48"/>
      </g>
     </g>
    </g>
    <g id="text_16">
     <!-- Time -->
     <defs>
      <path d="M 9.421875 54.6875 
L 18.40625 54.6875 
L 18.40625 0 
L 9.421875 0 
z
M 9.421875 75.984375 
L 18.40625 75.984375 
L 18.40625 64.59375 
L 9.421875 64.59375 
z
" id="DejaVuSans-105"/>
      <path d="M 52 44.1875 
Q 55.375 50.25 60.0625 53.125 
Q 64.75 56 71.09375 56 
Q 79.640625 56 84.28125 50.015625 
Q 88.921875 44.046875 88.921875 33.015625 
L 88.921875 0 
L 79.890625 0 
L 79.890625 32.71875 
Q 79.890625 40.578125 77.09375 44.375 
Q 74.3125 48.1875 68.609375 48.1875 
Q 61.625 48.1875 57.5625 43.546875 
Q 53.515625 38.921875 53.515625 30.90625 
L 53.515625 0 
L 44.484375 0 
L 44.484375 32.71875 
Q 44.484375 40.625 41.703125 44.40625 
Q 38.921875 48.1875 33.109375 48.1875 
Q 26.21875 48.1875 22.15625 43.53125 
Q 18.109375 38.875 18.109375 30.90625 
L 18.109375 0 
L 9.078125 0 
L 9.078125 54.6875 
L 18.109375 54.6875 
L 18.109375 46.1875 
Q 21.1875 51.21875 25.484375 53.609375 
Q 29.78125 56 35.6875 56 
Q 41.65625 56 45.828125 52.96875 
Q 50 49.953125 52 44.1875 
z
" id="DejaVuSans-109"/>
     </defs>
     <g transform="translate(31.795313 186.761594)rotate(-90)scale(0.1 -0.1)">
      <use xlink:href="#DejaVuSans-84"/>
      <use x="57.958984" xlink:href="#DejaVuSans-105"/>
      <use x="85.742188" xlink:href="#DejaVuSans-109"/>
      <use x="183.154297" xlink:href="#DejaVuSans-101"/>
     </g>
    </g>
   </g>
   <g id="line2d_15">
    <path clip-path="url(#p8c9780b94e)" d="M 217.541634 295.488 
L 225.189579 295.146291 
L 265.55499 295.068402 
L 227.17111 294.869787 
L 236.787943 294.644479 
L 237.070591 294.444695 
L 238.20107 294.245113 
L 236.787943 294.020108 
L 237.635854 293.819884 
L 237.070591 293.617089 
L 241.591379 293.395142 
L 241.026446 293.194244 
L 235.374525 292.99496 
L 237.091707 292.770328 
L 241.308919 292.570811 
L 317.811037 292.369898 
L 321.255621 292.170434 
L 343.464279 291.945638 
L 345.125254 291.745485 
L 344.018012 291.543133 
L 344.903782 291.320515 
L 341.585231 291.121275 
L 341.802637 290.91769 
L 345.402018 290.695652 
L 344.57167 290.494914 
L 345.125254 290.296364 
L 344.29485 290.071534 
L 350.188919 289.871107 
L 344.29485 289.669107 
L 342.633541 289.447237 
L 343.741155 289.247517 
L 343.741155 288.84797 
L 345.402018 288.623011 
L 343.741155 288.423174 
L 344.018012 288.223203 
L 343.187385 287.998398 
L 327.545521 287.798632 
L 325.178829 287.598501 
L 342.356591 287.373371 
L 335.68442 287.173617 
L 344.29485 286.973778 
L 338.095279 286.749223 
L 350.656969 286.349021 
L 336.565541 285.924176 
L 343.741155 285.724313 
L 345.402018 285.524306 
L 342.356591 285.09956 
L 343.464279 284.89997 
L 344.018012 284.674885 
L 348.721725 284.47501 
L 342.633541 284.275019 
L 343.741155 284.050249 
L 349.551229 283.850413 
L 342.356591 283.650434 
L 355.992103 283.425684 
L 342.079623 283.226174 
L 352.91741 283.026065 
L 342.910472 282.801146 
L 353.682598 282.601174 
L 345.402018 282.401325 
L 342.910472 282.175963 
L 345.402018 281.976532 
L 361.773461 281.774201 
L 342.633541 281.57674 
L 340.971567 281.351994 
L 329.569969 281.151994 
L 342.910472 280.952013 
L 342.356591 280.727253 
L 332.302831 280.527152 
L 340.109007 280.327509 
L 331.528503 280.102223 
L 331.16966 279.902645 
L 341.802637 279.702572 
L 343.464279 279.4779 
L 342.356591 279.278068 
L 342.910472 279.078085 
L 334.10468 278.852608 
L 342.633541 278.653438 
L 340.8535 278.45234 
L 337.021274 278.253345 
L 350.656969 278.028289 
L 342.633541 277.828697 
L 340.971567 277.628769 
L 336.388661 277.403934 
L 342.910472 277.203761 
L 342.356591 277.004029 
L 334.848045 276.779143 
L 342.633541 276.579122 
L 336.490178 276.379399 
L 342.079623 276.154596 
L 332.700058 275.954515 
L 343.187385 275.755062 
L 342.070968 275.529364 
L 339.686085 275.330011 
L 340.971567 275.130029 
L 343.187385 274.904474 
L 348.803397 274.705122 
L 343.187385 274.505272 
L 320.82556 274.305618 
L 339.272711 274.0807 
L 331.502997 273.880655 
L 340.417428 273.680654 
L 363.053908 273.455906 
L 342.910472 273.255994 
L 347.310089 273.05499 
L 347.289744 272.831223 
L 329.814777 272.631097 
L 342.910472 272.431414 
L 341.802637 272.206435 
L 342.079623 272.006529 
L 342.910472 271.806575 
L 343.187385 271.581535 
L 343.741155 271.382028 
L 342.77211 271.182263 
L 343.187385 270.982074 
L 342.079623 270.757296 
L 342.079623 270.55726 
L 343.187385 270.357388 
L 342.356591 270.132328 
L 343.187385 269.93225 
L 354.187776 269.732466 
L 336.428781 269.507809 
L 342.079623 269.307438 
L 343.075449 268.88312 
L 338.307858 268.680633 
L 342.079623 268.483256 
L 341.525632 268.258217 
L 343.464279 268.058432 
L 349.340224 267.85842 
L 342.079623 267.658351 
L 342.079623 267.433368 
L 340.971567 267.233594 
L 342.356591 266.808992 
L 341.248608 266.609137 
L 342.910472 266.409251 
L 342.682053 266.18433 
L 343.187385 265.984648 
L 321.533926 265.784348 
L 322.368736 265.559369 
L 323.759743 265.359555 
L 321.812213 265.15956 
L 325.706424 264.935075 
L 325.168391 264.735212 
L 329.538789 264.535288 
L 338.477365 263.285718 
L 335.704297 263.085713 
L 337.645635 262.860773 
L 335.149467 262.661056 
L 337.645635 262.460925 
L 335.981686 262.236484 
L 339.03176 262.036463 
L 336.05599 261.836502 
L 337.091058 261.611576 
L 338.754571 261.411902 
L 356.181092 261.21175 
L 339.03176 260.986429 
L 336.813742 260.787095 
L 350.104137 260.387281 
L 340.971567 259.9626 
L 348.998245 259.537977 
L 347.887933 259.337867 
L 351.209725 259.13803 
L 352.421076 258.913251 
L 347.062209 258.713214 
L 346.232198 258.513253 
L 346.232198 258.288542 
L 337.368356 258.088591 
L 344.29485 257.888363 
L 338.477365 257.463914 
L 343.696339 257.263798 
L 340.417428 257.0387 
L 341.802637 256.838825 
L 347.892052 256.639215 
L 348.998245 256.439382 
L 353.419988 256.214294 
L 341.802637 256.014853 
L 345.402018 255.81481 
L 336.259056 255.589953 
L 334.872024 255.389688 
L 354.22398 254.965218 
L 337.93948 254.765348 
L 345.95549 254.565442 
L 345.125254 254.340588 
L 354.011738 254.140622 
L 347.207788 253.940691 
L 353.008961 253.51589 
L 354.670778 253.316126 
L 358.298944 253.116158 
L 351.787349 252.891251 
L 337.645635 252.69129 
L 344.57167 252.491115 
L 340.971567 252.266737 
L 346.980249 252.066626 
L 337.413019 251.866753 
L 337.091058 251.642069 
L 347.892052 251.241945 
L 345.95549 251.01741 
L 337.922897 250.617172 
L 340.971567 250.392203 
L 329.597216 250.19248 
L 334.872024 249.992413 
L 334.317086 249.79265 
L 335.981686 249.568075 
L 340.70259 249.367851 
L 338.765958 249.167965 
L 339.934187 248.943361 
L 347.882868 248.543154 
L 349.808828 248.318342 
L 350.324904 248.118473 
L 352.626321 247.918829 
L 361.932396 247.694052 
L 363.912348 247.494216 
L 363.944965 247.294108 
L 361.000089 246.868992 
L 351.622404 246.444398 
L 354.803443 246.244431 
L 344.57167 246.044792 
L 360.47078 245.844771 
L 345.869606 245.619898 
L 347.892052 245.420157 
L 347.373319 245.22006 
L 337.368356 244.595123 
L 348.998245 244.370708 
L 345.077548 243.97065 
L 351.886532 243.745616 
L 335.528787 243.545908 
L 331.832072 243.346377 
L 331.26364 243.121085 
L 331.818973 242.921583 
L 335.426891 242.521353 
L 336.536408 242.296747 
L 339.30893 242.096576 
L 339.863215 241.896797 
L 340.971567 241.672055 
L 340.971567 241.47196 
L 338.754571 241.272285 
L 342.633541 241.047341 
L 340.140331 240.647551 
L 356.526263 240.023098 
L 354.079363 239.797814 
L 353.808216 239.59827 
L 360.94739 239.39785 
L 349.889398 238.773327 
L 351.663877 238.573526 
L 332.00404 238.348674 
L 340.505759 238.148989 
L 338.754571 237.94878 
L 310.153536 237.523731 
L 288.605092 237.099429 
L 324.594139 236.899434 
L 320.142231 236.699869 
L 335.981686 236.474696 
L 332.764186 236.274702 
L 341.239275 235.849774 
L 332.827974 235.649832 
L 336.664836 235.450219 
L 335.72519 235.250329 
L 340.114978 235.025639 
L 340.702133 234.825246 
L 339.566291 234.625618 
L 343.464279 234.400803 
L 344.018012 234.201013 
L 320.977299 234.000751 
L 322.090483 233.775978 
L 322.368736 233.575826 
L 305.941319 233.376012 
L 346.498147 232.751042 
L 348.457255 232.526151 
L 348.168628 232.326456 
L 339.305665 232.126882 
L 351.568736 231.926647 
L 353.432598 231.702089 
L 350.006563 231.502456 
L 340.099215 231.302344 
L 353.618472 231.077571 
L 353.157866 230.877594 
L 354.970177 230.677815 
L 331.591073 230.452855 
L 350.659466 230.252747 
L 349.693395 230.052803 
L 356.462049 229.827757 
L 355.921343 229.628241 
L 353.242938 229.428426 
L 329.32452 229.203235 
L 277.142343 229.003585 
L 340.986582 228.803441 
L 341.248608 228.578359 
L 303.688571 228.378985 
L 328.940483 227.979126 
L 340.694506 227.754161 
L 325.706424 227.554389 
L 330.786921 227.354124 
L 310.667491 226.929487 
L 326.243135 226.729681 
L 322.262016 226.504712 
L 339.30893 226.305 
L 330.14337 226.104897 
L 202.862065 225.880106 
L 237.33515 225.680283 
L 337.544331 225.479869 
L 323.734107 225.255094 
L 324.421151 225.055706 
L 352.038717 224.655819 
L 351.711657 224.43073 
L 357.819147 224.231074 
L 374.080455 224.031108 
L 352.26017 223.806326 
L 347.377624 223.605913 
L 355.918007 223.406345 
L 356.735608 223.181346 
L 343.614481 222.981539 
L 361.215319 222.781673 
L 341.548034 222.556708 
L 361.521587 222.356636 
L 356.086817 222.156681 
L 352.041651 221.732062 
L 338.786226 221.331989 
L 322.925191 220.707547 
L 325.329148 220.482843 
L 321.387522 220.08298 
L 299.206731 219.658338 
L 296.140085 219.233527 
L 284.658607 218.608596 
L 286.396051 218.408785 
L 284.37559 218.208763 
L 283.729418 217.983586 
L 284.37559 217.783924 
L 289.42079 217.159603 
L 279.332281 216.959335 
L 275.494465 216.759606 
L 292.359278 216.53481 
L 276.562601 216.334961 
L 277.207863 216.134962 
L 290.233094 215.910141 
L 288.572667 215.510303 
L 284.936406 215.285324 
L 283.814715 215.085292 
L 278.247531 214.885543 
L 277.720841 214.660302 
L 274.709591 214.460661 
L 277.690886 214.260861 
L 280.448228 213.836003 
L 283.977003 213.636312 
L 284.936406 213.436205 
L 262.166678 213.211542 
L 283.814715 213.011791 
L 281.962644 212.811831 
L 315.029765 212.586894 
L 312.085638 212.386998 
L 320.646549 211.962308 
L 304.092162 211.762484 
L 317.950909 211.562506 
L 318.068134 211.337546 
L 310.553076 211.137874 
L 310.775468 210.937791 
L 312.968985 210.712776 
L 310.484323 210.512926 
L 272.795281 210.312868 
L 297.064895 210.113232 
L 245.009022 209.88843 
L 348.381264 209.688311 
L 346.232198 209.488519 
L 342.079623 209.26342 
L 343.741155 209.063874 
L 342.910472 208.86178 
L 341.248608 208.638582 
L 343.187385 208.438815 
L 343.464279 208.238837 
L 343.464279 208.013813 
L 353.076906 207.814123 
L 337.645635 207.614232 
L 343.741155 207.388931 
L 344.29485 207.189175 
L 343.464279 206.989266 
L 343.741155 206.789533 
L 332.119065 206.564607 
L 344.018012 206.364798 
L 342.147092 205.940165 
L 345.402018 205.540242 
L 348.998245 205.315384 
L 343.6595 205.11535 
L 352.448899 204.915598 
L 342.356591 204.690512 
L 344.018012 204.291033 
L 343.464279 204.06543 
L 336.78952 203.86605 
L 343.741155 203.666239 
L 343.187385 203.465773 
L 345.402018 203.241379 
L 344.57167 203.041451 
L 344.49559 202.841619 
L 342.633541 202.41685 
L 342.356591 202.21678 
L 343.464279 201.992276 
L 345.125254 201.79227 
L 339.826224 201.592108 
L 360.79602 201.367342 
L 344.57167 200.96743 
L 349.282897 200.742554 
L 339.135718 200.342719 
L 340.971567 200.11764 
L 344.018012 199.917844 
L 351.756721 199.71809 
L 346.266532 199.518028 
L 351.529252 199.093413 
L 356.434625 198.893719 
L 338.193507 198.668619 
L 345.343099 198.468671 
L 357.970868 198.26878 
L 160.397927 198.043908 
L 182.327555 197.844033 
L 183.632011 197.644142 
L 192.708395 197.419025 
L 179.750965 197.019606 
L 190.661005 196.394753 
L 193.632902 196.19456 
L 195.288871 195.970115 
L 202.558645 195.770158 
L 195.82387 195.570379 
L 207.210631 195.34526 
L 201.91201 195.145489 
L 215.065245 194.945644 
L 214.238358 194.720907 
L 216.974817 194.520866 
L 221.508194 194.320714 
L 225.755785 193.896026 
L 224.90646 193.696243 
L 222.886677 193.471279 
L 234.809077 193.071786 
L 226.78714 192.846723 
L 232.781266 192.646957 
L 249.915164 192.446959 
L 245.909458 192.246524 
L 257.97606 192.02196 
L 251.420242 191.822172 
L 275.95633 191.197488 
L 278.283669 190.997197 
L 284.924564 190.772482 
L 299.565145 190.372603 
L 304.865304 190.147828 
L 305.107343 189.948227 
L 306.248778 189.74806 
L 301.636681 189.523258 
L 300.884661 189.323702 
L 300.835629 189.123501 
L 306.238366 188.923634 
L 304.984646 188.698735 
L 307.277357 188.298804 
L 300.947665 188.07385 
L 305.779512 187.873904 
L 303.448764 187.674298 
L 313.634358 187.449413 
L 316.521832 187.247979 
L 314.571203 187.049427 
L 326.818429 186.42481 
L 340.417428 186.199728 
L 342.079623 186.00016 
L 350.656969 185.600178 
L 368.581922 185.175307 
L 389.890934 184.550745 
L 389.159006 184.351335 
L 389.432575 184.126307 
L 389.432575 183.926344 
L 388.482174 183.726291 
L 335.62572 183.101841 
L 229.43506 182.476969 
L 183.584625 181.85227 
L 176.907115 181.652516 
L 157.084137 181.227306 
L 155.265837 181.027787 
L 157.261882 180.603244 
L 182.012163 180.178167 
L 199.820216 179.978347 
L 272.866033 179.553671 
L 345.162469 179.154091 
L 337.314925 178.928616 
L 358.091602 178.529478 
L 347.892052 178.328882 
L 360.594835 178.104678 
L 371.633291 177.479732 
L 383.778788 177.27966 
L 384.296904 177.079849 
L 366.380255 176.855191 
L 365.693686 176.655132 
L 369.214912 176.45515 
L 382.915063 176.230448 
L 365.463212 176.030512 
L 364.850405 175.830439 
L 361.672962 175.605234 
L 355.919321 175.405904 
L 359.172039 175.205921 
L 322.747383 174.581238 
L 310.38853 174.156075 
L 313.177394 173.956517 
L 317.548332 173.756395 
L 311.554509 173.531776 
L 333.050659 173.331828 
L 327.767424 173.131976 
L 335.704297 172.907047 
L 338.754571 172.70725 
L 326.828999 172.507095 
L 326.818429 172.281908 
L 329.319417 172.082672 
L 326.068158 171.457906 
L 323.481576 171.257775 
L 326.032286 171.058029 
L 314.306748 170.833198 
L 299.761679 170.20827 
L 286.44127 169.808631 
L 279.325582 169.583745 
L 246.39137 168.959234 
L 238.865736 168.759292 
L 227.137181 168.559302 
L 221.175299 168.334028 
L 191.452093 167.734634 
L 170.520987 167.110346 
L 162.595348 166.685268 
L 162.63575 166.485466 
L 161.007582 166.260465 
L 154.125109 166.060505 
L 149.846566 165.635901 
L 159.704229 165.23629 
L 158.866878 165.010803 
L 173.522901 164.811192 
L 177.189404 164.611348 
L 201.394842 163.986683 
L 242.04887 163.161895 
L 231.415434 162.737244 
L 228.303173 162.537354 
L 226.605012 162.312388 
L 214.707141 161.912825 
L 215.135165 161.688035 
L 190.629851 161.487856 
L 186.911083 161.288138 
L 190.575264 161.062757 
L 185.686211 160.863153 
L 184.964252 160.663427 
L 188.585065 160.463037 
L 189.153735 160.238326 
L 187.731998 160.038342 
L 198.757444 159.613566 
L 252.48552 158.589093 
L 268.627255 158.164628 
L 307.862408 157.739721 
L 318.809596 157.540026 
L 350.196359 157.139931 
L 349.015173 156.915247 
L 373.805721 156.515586 
L 385.164342 156.2904 
L 390.069794 155.891029 
L 388.392421 155.665895 
L 394.321373 155.465937 
L 390.767217 155.266245 
L 390.177566 155.040922 
L 392.167086 154.841174 
L 382.038816 154.416464 
L 376.552143 154.216646 
L 375.982409 154.016409 
L 354.281455 153.791362 
L 333.762075 153.392005 
L 271.734781 152.767735 
L 234.216471 152.34258 
L 212.43882 151.942883 
L 199.383967 151.317652 
L 203.35929 151.092944 
L 202.507586 150.893261 
L 197.679714 150.693665 
L 201.371852 150.467986 
L 201.371852 150.268631 
L 215.151256 149.868577 
L 238.428865 149.243916 
L 240.970464 149.019489 
L 244.993205 148.819011 
L 251.24924 148.619246 
L 252.008111 148.394424 
L 251.468561 148.194677 
L 247.471266 147.994561 
L 246.922426 147.769902 
L 236.668024 147.569941 
L 238.483661 147.370056 
L 219.285227 146.74544 
L 185.741224 145.695917 
L 188.547552 145.495801 
L 184.540933 145.296045 
L 184.319001 145.070996 
L 179.48197 144.871288 
L 182.327555 144.671595 
L 181.473961 144.446364 
L 190.859545 144.046748 
L 198.822723 143.821759 
L 201.778334 143.62192 
L 235.949416 143.196651 
L 276.533788 142.797374 
L 353.972362 141.972574 
L 369.31847 141.548222 
L 366.912849 141.347853 
L 367.544675 141.123355 
L 361.31159 140.923196 
L 363.504406 140.723027 
L 340.890382 140.298406 
L 239.914302 139.474079 
L 196.827467 138.849319 
L 203.35929 138.649231 
L 202.223666 138.424465 
L 195.406879 138.22475 
L 196.259258 138.024504 
L 213.856595 137.400036 
L 198.547518 137.174986 
L 230.41865 136.975621 
L 229.761401 136.77533 
L 254.289474 136.350714 
L 236.505282 136.150778 
L 231.981154 135.925488 
L 242.43869 135.326124 
L 242.12727 135.101425 
L 244.946302 134.901703 
L 242.834416 134.701395 
L 241.715469 134.476334 
L 247.040662 134.276715 
L 246.096728 134.076324 
L 248.931114 133.851771 
L 249.495365 133.652203 
L 236.878135 133.226996 
L 244.280672 133.027271 
L 243.741181 132.827082 
L 242.274121 132.602315 
L 242.78705 132.402782 
L 249.160898 132.202686 
L 250.185338 132.00261 
L 247.626678 131.777984 
L 248.348523 131.577705 
L 246.733698 131.153459 
L 247.958211 130.953407 
L 247.238062 130.753399 
L 248.352278 130.528759 
L 247.740044 130.328578 
L 248.877111 130.128648 
L 256.262451 129.704133 
L 264.147961 129.50403 
L 263.266301 129.278918 
L 260.488117 129.079301 
L 218.675144 128.254882 
L 214.950164 128.055028 
L 222.924324 127.630177 
L 228.34796 127.430073 
L 316.243221 126.180621 
L 330.267378 125.555873 
L 340.694506 125.330838 
L 332.929424 125.131069 
L 301.122785 124.731195 
L 233.11246 124.306598 
L 245.119454 124.106544 
L 210.767735 123.48196 
L 156.733591 123.057286 
L 128.416898 122.856988 
L 117.294215 122.632645 
L 85.558929 122.232755 
L 107.364454 122.00779 
L 104.266911 121.807852 
L 351.284802 121.60814 
L 118.879621 121.407568 
L 393.260291 121.183191 
L 128.72232 120.983162 
L 118.723031 120.558228 
L 118.436066 120.35893 
L 94.424209 120.158685 
L 134.403914 119.933833 
L 315.128609 119.534033 
L 366.669478 119.109308 
L 372.692491 118.90862 
L 361.897676 118.683646 
L 320.064343 118.284565 
L 280.734021 118.059496 
L 138.71674 117.459893 
L 93.852292 117.035326 
L 87.274873 116.835168 
L 119.157651 116.610679 
L 119.052587 116.409842 
L 126.821706 116.209425 
L 130.936278 115.984488 
L 142.577062 115.784792 
L 130.386347 115.584567 
L 140.906003 115.360121 
L 317.914632 114.961739 
L 352.596847 114.536371 
L 350.631208 114.336423 
L 343.061455 114.136819 
L 304.472791 113.711913 
L 192.72844 113.08718 
L 177.774253 112.887409 
L 172.385193 112.662621 
L 125.580169 112.461841 
L 150.702375 112.260494 
L 114.150546 112.035837 
L 165.243044 111.838062 
L 146.708177 111.638016 
L 156.121321 111.412986 
L 336.623178 110.813287 
L 397.902566 110.188676 
L 392.167086 109.964052 
L 393.260291 109.763943 
L 384.231157 109.563934 
L 332.929424 109.339286 
L 396.810829 109.139033 
L 348.998245 108.939366 
L 387.02373 108.714703 
L 395.900771 108.514585 
L 393.26316 108.314841 
L 207.049032 108.08981 
L 364.837092 107.889633 
L 205.152944 107.689994 
L 339.539936 107.464946 
L 203.491468 107.264675 
L 398.448304 107.065473 
L 390.253152 106.865165 
L 389.432575 106.64007 
L 380.119422 106.240432 
L 377.650139 106.015846 
L 381.937824 105.816242 
L 378.715651 105.616139 
L 368.306783 105.39129 
L 365.829639 105.191402 
L 360.870528 104.991542 
L 358.664435 104.766542 
L 359.491866 104.566689 
L 372.096728 103.942169 
L 367.852184 103.741842 
L 375.860869 103.54198 
L 389.432575 103.317029 
L 384.779033 103.117659 
L 386.57723 102.91754 
L 378.747805 102.692244 
L 380.067226 102.49224 
L 380.119422 102.292354 
L 382.504787 102.068066 
L 394.079969 101.868084 
L 398.487273 101.66759 
L 180.602007 101.443119 
L 364.396266 101.24322 
L 348.168628 101.04329 
L 73.832727 100.818222 
L 346.508887 100.19346 
L 171.510352 99.99353 
L 200.235972 99.793852 
L 183.465571 99.594343 
L 175.212174 99.169235 
L 394.777024 98.744701 
L 178.058892 98.54474 
L 174.927462 98.344804 
L 209.318844 98.119256 
L 178.912762 97.919996 
L 189.153735 97.719752 
L 383.135154 97.495492 
L 188.869404 97.295579 
L 388.885417 96.870222 
L 380.108139 96.670825 
L 376.364968 96.470688 
L 374.747184 96.270783 
L 374.577252 96.045853 
L 375.418386 95.846099 
L 375.362267 95.64615 
L 375.772712 95.421063 
L 377.207234 95.220918 
L 377.074778 95.021273 
L 377.311842 94.796244 
L 374.853572 94.596402 
L 378.411653 94.39657 
L 377.485467 94.170111 
L 377.252401 93.971789 
L 377.329935 93.771785 
L 378.813149 93.545905 
L 378.719101 93.346609 
L 376.933101 92.946626 
L 377.31536 92.722317 
L 378.162265 92.522277 
L 378.269224 92.09595 
L 376.128278 91.897771 
L 376.614142 91.697453 
L 376.292307 91.473165 
L 380.077471 90.848604 
L 376.140311 90.648525 
L 377.455346 90.22416 
L 376.353036 89.823975 
L 376.991977 89.598949 
L 376.762433 89.39901 
L 378.316187 89.199333 
L 376.524696 88.999729 
L 373.483774 88.774917 
L 378.09108 88.571389 
L 377.232565 88.375139 
L 377.761468 88.149634 
L 378.562818 87.950236 
L 378.222662 87.750438 
L 376.658412 87.524709 
L 378.549319 87.325573 
L 375.373732 87.125978 
L 375.593441 86.901127 
L 373.86458 86.701718 
L 375.787964 86.500968 
L 375.91812 86.275551 
L 378.605758 86.0734 
L 378.253648 85.873905 
L 377.306682 85.673898 
L 378.067597 85.449213 
L 375.9326 85.251936 
L 378.886631 85.051778 
L 374.355169 84.82676 
L 375.9326 84.42707 
L 374.543117 84.202327 
L 377.027698 84.002324 
L 375.689882 83.577772 
L 375.943326 83.377342 
L 374.035618 83.177568 
L 376.665751 82.752905 
L 373.334715 82.552781 
L 374.080455 82.352619 
L 371.91936 81.928285 
L 372.156889 81.728671 
L 373.805721 81.50358 
L 371.960297 81.10408 
L 372.830237 80.878824 
L 371.332199 80.479597 
L 373.511345 80.254429 
L 372.946039 80.053723 
L 374.08904 79.853688 
L 374.411806 79.628737 
L 377.712957 79.429674 
L 370.782305 79.229714 
L 374.355169 78.804324 
L 368.85704 78.6044 
L 372.706581 78.404471 
L 371.057262 78.177232 
L 372.508978 77.977756 
L 370.507328 77.777078 
L 371.057262 77.553224 
L 371.02333 77.35292 
L 373.530966 77.152942 
L 366.104957 76.728206 
L 364.177313 76.531168 
L 360.820048 76.306334 
L 361.146201 76.106151 
L 364.45275 75.680862 
L 389.755606 75.481837 
L 395.445669 75.281969 
L 395.991798 74.457351 
L 395.991798 74.232206 
L 394.899454 73.832796 
L 389.979647 73.60671 
L 397.902566 73.404872 
L 388.064521 72.78307 
L 393.533539 72.582967 
L 376.552143 72.358228 
L 381.216343 68.610164 
L 359.216075 65.98675 
L 364.45275 65.237225 
L 365.91719 64.837299 
L 367.756447 64.462691 
L 367.481248 64.087932 
L 367.756447 63.712948 
L 370.5272 63.33779 
L 366.930792 62.960184 
L 372.156889 62.585705 
L 368.581922 62.211926 
L 368.85704 61.838759 
L 367.853561 61.464548 
L 370.945261 60.714466 
L 372.653206 59.964635 
L 370.000721 59.589327 
L 371.290584 59.211793 
L 369.677372 58.83746 
L 371.801311 58.465195 
L 371.555738 58.090452 
L 371.092268 57.715288 
L 374.333406 57.340467 
L 373.318984 56.96552 
L 370.900151 56.565638 
L 375.225252 56.191458 
L 370.338847 55.442125 
L 372.416178 55.067141 
L 371.955331 54.691749 
L 369.933173 54.317277 
L 372.313947 53.942256 
L 370.912301 53.568 
L 370.912301 53.568 
" style="fill:none;stroke:#1f77b4;stroke-linecap:square;stroke-width:1.5;"/>
   </g>
   <g id="patch_3">
    <path d="M 57.6 307.584 
L 57.6 41.472 
" style="fill:none;stroke:#000000;stroke-linecap:square;stroke-linejoin:miter;stroke-width:0.8;"/>
   </g>
   <g id="patch_4">
    <path d="M 414.72 307.584 
L 414.72 41.472 
" style="fill:none;stroke:#000000;stroke-linecap:square;stroke-linejoin:miter;stroke-width:0.8;"/>
   </g>
   <g id="patch_5">
    <path d="M 57.6 307.584 
L 414.72 307.584 
" style="fill:none;stroke:#000000;stroke-linecap:square;stroke-linejoin:miter;stroke-width:0.8;"/>
   </g>
   <g id="patch_6">
    <path d="M 57.6 41.472 
L 414.72 41.472 
" style="fill:none;stroke:#000000;stroke-linecap:square;stroke-linejoin:miter;stroke-width:0.8;"/>
   </g>
  </g>
 </g>
 <defs>
  <clipPath id="p8c9780b94e">
   <rect height="266.112" width="357.12" x="57.6" y="41.472"/>
  </clipPath>
 </defs>
</svg>
